<mxfile host="app.diagrams.net" agent="Mozilla/5.0 (Windows NT 10.0; Win64; x64; rv:140.0) Gecko/20100101 Firefox/140.0" version="28.0.5">
  <diagram name="Page-1" id="fSi8V74m4quzsMzalsrb">
    <mxGraphModel dx="1678" dy="916" grid="1" gridSize="10" guides="1" tooltips="1" connect="1" arrows="1" fold="1" page="1" pageScale="1" pageWidth="850" pageHeight="1100" math="0" shadow="0">
      <root>
        <mxCell id="0" />
        <mxCell id="1" parent="0" />
        <mxCell id="Rrmjgu_ArYxmoVn-tmQf-1" value="&lt;div&gt;ARTIST&lt;/div&gt;" style="rounded=0;whiteSpace=wrap;html=1;fontStyle=1;fontFamily=Times New Roman;" vertex="1" parent="1">
          <mxGeometry x="360" y="40" width="120" height="40" as="geometry" />
        </mxCell>
        <mxCell id="Rrmjgu_ArYxmoVn-tmQf-3" value="name" style="ellipse;whiteSpace=wrap;html=1;fontFamily=Times New Roman;rounded=0;fontStyle=1;" vertex="1" parent="1">
          <mxGeometry x="40" y="30" width="140" height="60" as="geometry" />
        </mxCell>
        <mxCell id="Rrmjgu_ArYxmoVn-tmQf-5" value="COUNTRY" style="ellipse;whiteSpace=wrap;html=1;fontFamily=Times New Roman;rounded=0;fontStyle=1;" vertex="1" parent="1">
          <mxGeometry x="620" y="27.5" width="140" height="65" as="geometry" />
        </mxCell>
        <mxCell id="Rrmjgu_ArYxmoVn-tmQf-7" value="CREATES" style="rhombus;whiteSpace=wrap;html=1;fontFamily=Times New Roman;rounded=0;fontStyle=1;" vertex="1" parent="1">
          <mxGeometry x="380" y="130" width="80" height="80" as="geometry" />
        </mxCell>
        <mxCell id="Rrmjgu_ArYxmoVn-tmQf-10" value="ART_OBJECTS" style="whiteSpace=wrap;html=1;fontFamily=Times New Roman;rounded=0;fontStyle=1;" vertex="1" parent="1">
          <mxGeometry x="320" y="260" width="200" height="50" as="geometry" />
        </mxCell>
        <mxCell id="Rrmjgu_ArYxmoVn-tmQf-18" value="Shown at" style="rhombus;whiteSpace=wrap;html=1;fontFamily=Times New Roman;rounded=0;fontStyle=1;" vertex="1" parent="1">
          <mxGeometry x="150" y="220" width="110" height="60" as="geometry" />
        </mxCell>
        <mxCell id="Rrmjgu_ArYxmoVn-tmQf-21" value="EXHIBITION" style="whiteSpace=wrap;html=1;fontFamily=Times New Roman;rounded=0;fontStyle=1;" vertex="1" parent="1">
          <mxGeometry x="190" y="375" width="120" height="45" as="geometry" />
        </mxCell>
        <mxCell id="Rrmjgu_ArYxmoVn-tmQf-23" value="e_name" style="whiteSpace=wrap;html=1;fontFamily=Times New Roman;rounded=0;fontStyle=1;" vertex="1" parent="1">
          <mxGeometry x="20" y="390" width="120" height="45" as="geometry" />
        </mxCell>
        <mxCell id="Rrmjgu_ArYxmoVn-tmQf-30" value="s_date" style="whiteSpace=wrap;html=1;fontFamily=Times New Roman;rounded=0;fontStyle=1;" vertex="1" parent="1">
          <mxGeometry x="50" y="520" width="120" height="45" as="geometry" />
        </mxCell>
        <mxCell id="Rrmjgu_ArYxmoVn-tmQf-32" value="e_date" style="whiteSpace=wrap;html=1;fontFamily=Times New Roman;rounded=0;fontStyle=1;" vertex="1" parent="1">
          <mxGeometry x="150" y="595" width="120" height="45" as="geometry" />
        </mxCell>
        <mxCell id="Rrmjgu_ArYxmoVn-tmQf-41" value="title" style="ellipse;whiteSpace=wrap;html=1;align=center;fontStyle=4;" vertex="1" parent="1">
          <mxGeometry x="660" y="310" width="100" height="40" as="geometry" />
        </mxCell>
        <mxCell id="Rrmjgu_ArYxmoVn-tmQf-44" value="year" style="ellipse;whiteSpace=wrap;html=1;align=center;fontStyle=4;" vertex="1" parent="1">
          <mxGeometry x="660" y="240" width="100" height="40" as="geometry" />
        </mxCell>
        <mxCell id="Rrmjgu_ArYxmoVn-tmQf-47" value="id_no" style="ellipse;whiteSpace=wrap;html=1;align=center;fontStyle=4;" vertex="1" parent="1">
          <mxGeometry x="650" y="160" width="100" height="40" as="geometry" />
        </mxCell>
        <mxCell id="Rrmjgu_ArYxmoVn-tmQf-50" value="&lt;div&gt;PAINTING&lt;/div&gt;" style="rounded=1;arcSize=10;whiteSpace=wrap;html=1;align=center;" vertex="1" parent="1">
          <mxGeometry x="640" y="510" width="100" height="40" as="geometry" />
        </mxCell>
        <mxCell id="Rrmjgu_ArYxmoVn-tmQf-58" value="SCULPTURE" style="rounded=1;arcSize=10;whiteSpace=wrap;html=1;align=center;" vertex="1" parent="1">
          <mxGeometry x="430" y="590" width="100" height="40" as="geometry" />
        </mxCell>
        <mxCell id="Rrmjgu_ArYxmoVn-tmQf-59" value="style" style="ellipse;whiteSpace=wrap;html=1;align=center;fontStyle=4;" vertex="1" parent="1">
          <mxGeometry x="730" y="600" width="100" height="40" as="geometry" />
        </mxCell>
        <mxCell id="Rrmjgu_ArYxmoVn-tmQf-60" value="paint_type" style="ellipse;whiteSpace=wrap;html=1;align=center;fontStyle=4;" vertex="1" parent="1">
          <mxGeometry x="580" y="610" width="100" height="40" as="geometry" />
        </mxCell>
        <mxCell id="Rrmjgu_ArYxmoVn-tmQf-63" value="weight" style="ellipse;whiteSpace=wrap;html=1;align=center;fontStyle=4;" vertex="1" parent="1">
          <mxGeometry x="525" y="810" width="100" height="40" as="geometry" />
        </mxCell>
        <mxCell id="Rrmjgu_ArYxmoVn-tmQf-64" value="height" style="ellipse;whiteSpace=wrap;html=1;align=center;fontStyle=4;" vertex="1" parent="1">
          <mxGeometry x="410" y="760" width="100" height="40" as="geometry" />
        </mxCell>
        <mxCell id="Rrmjgu_ArYxmoVn-tmQf-65" value="material" style="ellipse;whiteSpace=wrap;html=1;align=center;fontStyle=4;" vertex="1" parent="1">
          <mxGeometry x="325" y="830" width="100" height="40" as="geometry" />
        </mxCell>
        <mxCell id="Rrmjgu_ArYxmoVn-tmQf-70" value="" style="endArrow=none;html=1;rounded=0;entryX=0.5;entryY=1;entryDx=0;entryDy=0;exitX=0.5;exitY=0;exitDx=0;exitDy=0;" edge="1" parent="1" source="Rrmjgu_ArYxmoVn-tmQf-21" target="Rrmjgu_ArYxmoVn-tmQf-18">
          <mxGeometry width="50" height="50" relative="1" as="geometry">
            <mxPoint x="190" y="370" as="sourcePoint" />
            <mxPoint x="240" y="320" as="targetPoint" />
          </mxGeometry>
        </mxCell>
        <mxCell id="Rrmjgu_ArYxmoVn-tmQf-71" value="" style="endArrow=none;html=1;rounded=0;entryX=0;entryY=0.5;entryDx=0;entryDy=0;exitX=1;exitY=0.5;exitDx=0;exitDy=0;" edge="1" parent="1" source="Rrmjgu_ArYxmoVn-tmQf-3" target="Rrmjgu_ArYxmoVn-tmQf-1">
          <mxGeometry width="50" height="50" relative="1" as="geometry">
            <mxPoint x="265" y="90" as="sourcePoint" />
            <mxPoint x="330" y="40" as="targetPoint" />
          </mxGeometry>
        </mxCell>
        <mxCell id="Rrmjgu_ArYxmoVn-tmQf-72" value="" style="endArrow=none;html=1;rounded=0;exitX=0.5;exitY=0;exitDx=0;exitDy=0;entryX=0.5;entryY=1;entryDx=0;entryDy=0;" edge="1" parent="1" source="Rrmjgu_ArYxmoVn-tmQf-7" target="Rrmjgu_ArYxmoVn-tmQf-1">
          <mxGeometry width="50" height="50" relative="1" as="geometry">
            <mxPoint x="420" y="140" as="sourcePoint" />
            <mxPoint x="470" y="90" as="targetPoint" />
          </mxGeometry>
        </mxCell>
        <mxCell id="Rrmjgu_ArYxmoVn-tmQf-73" value="" style="endArrow=none;html=1;rounded=0;entryX=0;entryY=0.5;entryDx=0;entryDy=0;exitX=1;exitY=0.5;exitDx=0;exitDy=0;" edge="1" parent="1" source="Rrmjgu_ArYxmoVn-tmQf-1" target="Rrmjgu_ArYxmoVn-tmQf-5">
          <mxGeometry width="50" height="50" relative="1" as="geometry">
            <mxPoint x="510" y="90" as="sourcePoint" />
            <mxPoint x="560" y="40" as="targetPoint" />
          </mxGeometry>
        </mxCell>
        <mxCell id="Rrmjgu_ArYxmoVn-tmQf-74" value="" style="endArrow=none;html=1;rounded=0;entryX=0.5;entryY=0;entryDx=0;entryDy=0;exitX=0.5;exitY=1;exitDx=0;exitDy=0;" edge="1" parent="1" source="Rrmjgu_ArYxmoVn-tmQf-7" target="Rrmjgu_ArYxmoVn-tmQf-10">
          <mxGeometry width="50" height="50" relative="1" as="geometry">
            <mxPoint x="490" y="190" as="sourcePoint" />
            <mxPoint x="540" y="140" as="targetPoint" />
          </mxGeometry>
        </mxCell>
        <mxCell id="Rrmjgu_ArYxmoVn-tmQf-75" value="" style="endArrow=none;html=1;rounded=0;entryX=0;entryY=0.5;entryDx=0;entryDy=0;exitX=1;exitY=0;exitDx=0;exitDy=0;" edge="1" parent="1" source="Rrmjgu_ArYxmoVn-tmQf-10" target="Rrmjgu_ArYxmoVn-tmQf-47">
          <mxGeometry width="50" height="50" relative="1" as="geometry">
            <mxPoint x="580" y="270" as="sourcePoint" />
            <mxPoint x="630" y="220" as="targetPoint" />
          </mxGeometry>
        </mxCell>
        <mxCell id="Rrmjgu_ArYxmoVn-tmQf-76" value="" style="endArrow=none;html=1;rounded=0;entryX=0;entryY=0.5;entryDx=0;entryDy=0;exitX=1;exitY=0.5;exitDx=0;exitDy=0;" edge="1" parent="1" source="Rrmjgu_ArYxmoVn-tmQf-10" target="Rrmjgu_ArYxmoVn-tmQf-44">
          <mxGeometry width="50" height="50" relative="1" as="geometry">
            <mxPoint x="570" y="300" as="sourcePoint" />
            <mxPoint x="620" y="250" as="targetPoint" />
          </mxGeometry>
        </mxCell>
        <mxCell id="Rrmjgu_ArYxmoVn-tmQf-77" value="" style="endArrow=none;html=1;rounded=0;entryX=0;entryY=0.5;entryDx=0;entryDy=0;exitX=1;exitY=1;exitDx=0;exitDy=0;" edge="1" parent="1" source="Rrmjgu_ArYxmoVn-tmQf-10" target="Rrmjgu_ArYxmoVn-tmQf-41">
          <mxGeometry width="50" height="50" relative="1" as="geometry">
            <mxPoint x="400" y="400" as="sourcePoint" />
            <mxPoint x="450" y="350" as="targetPoint" />
          </mxGeometry>
        </mxCell>
        <mxCell id="Rrmjgu_ArYxmoVn-tmQf-78" value="" style="endArrow=none;html=1;rounded=0;entryX=0.5;entryY=1;entryDx=0;entryDy=0;exitX=0.5;exitY=0;exitDx=0;exitDy=0;" edge="1" parent="1" source="Rrmjgu_ArYxmoVn-tmQf-90" target="Rrmjgu_ArYxmoVn-tmQf-10">
          <mxGeometry width="50" height="50" relative="1" as="geometry">
            <mxPoint x="577.5" y="400" as="sourcePoint" />
            <mxPoint x="450" y="350" as="targetPoint" />
          </mxGeometry>
        </mxCell>
        <mxCell id="Rrmjgu_ArYxmoVn-tmQf-79" value="" style="endArrow=none;html=1;rounded=0;entryX=0;entryY=0.5;entryDx=0;entryDy=0;exitX=1;exitY=0.5;exitDx=0;exitDy=0;" edge="1" parent="1" source="Rrmjgu_ArYxmoVn-tmQf-23" target="Rrmjgu_ArYxmoVn-tmQf-21">
          <mxGeometry width="50" height="50" relative="1" as="geometry">
            <mxPoint x="140" y="490" as="sourcePoint" />
            <mxPoint x="190" y="440" as="targetPoint" />
          </mxGeometry>
        </mxCell>
        <mxCell id="Rrmjgu_ArYxmoVn-tmQf-80" value="" style="endArrow=none;html=1;rounded=0;entryX=0.25;entryY=1;entryDx=0;entryDy=0;exitX=0.5;exitY=0;exitDx=0;exitDy=0;" edge="1" parent="1" source="Rrmjgu_ArYxmoVn-tmQf-30" target="Rrmjgu_ArYxmoVn-tmQf-21">
          <mxGeometry width="50" height="50" relative="1" as="geometry">
            <mxPoint x="160" y="520" as="sourcePoint" />
            <mxPoint x="210" y="470" as="targetPoint" />
          </mxGeometry>
        </mxCell>
        <mxCell id="Rrmjgu_ArYxmoVn-tmQf-81" value="" style="endArrow=none;html=1;rounded=0;entryX=0.75;entryY=1;entryDx=0;entryDy=0;exitX=0.5;exitY=0;exitDx=0;exitDy=0;" edge="1" parent="1" source="Rrmjgu_ArYxmoVn-tmQf-32" target="Rrmjgu_ArYxmoVn-tmQf-21">
          <mxGeometry width="50" height="50" relative="1" as="geometry">
            <mxPoint x="250" y="510" as="sourcePoint" />
            <mxPoint x="300" y="460" as="targetPoint" />
          </mxGeometry>
        </mxCell>
        <mxCell id="Rrmjgu_ArYxmoVn-tmQf-82" value="" style="endArrow=none;html=1;rounded=0;entryX=0;entryY=0.5;entryDx=0;entryDy=0;exitX=0.5;exitY=0;exitDx=0;exitDy=0;" edge="1" parent="1" source="Rrmjgu_ArYxmoVn-tmQf-58" target="Rrmjgu_ArYxmoVn-tmQf-90">
          <mxGeometry width="50" height="50" relative="1" as="geometry">
            <mxPoint x="430" y="485" as="sourcePoint" />
            <mxPoint x="530" y="461.02" as="targetPoint" />
          </mxGeometry>
        </mxCell>
        <mxCell id="Rrmjgu_ArYxmoVn-tmQf-83" value="" style="endArrow=none;html=1;rounded=0;entryX=1;entryY=0.5;entryDx=0;entryDy=0;exitX=0.5;exitY=0;exitDx=0;exitDy=0;" edge="1" parent="1" source="Rrmjgu_ArYxmoVn-tmQf-50" target="Rrmjgu_ArYxmoVn-tmQf-90">
          <mxGeometry width="50" height="50" relative="1" as="geometry">
            <mxPoint x="575" y="530" as="sourcePoint" />
            <mxPoint x="623.0050000000001" y="460" as="targetPoint" />
          </mxGeometry>
        </mxCell>
        <mxCell id="Rrmjgu_ArYxmoVn-tmQf-84" value="" style="endArrow=none;html=1;rounded=0;entryX=0;entryY=1;entryDx=0;entryDy=0;exitX=0.5;exitY=0;exitDx=0;exitDy=0;" edge="1" parent="1" source="Rrmjgu_ArYxmoVn-tmQf-60" target="Rrmjgu_ArYxmoVn-tmQf-50">
          <mxGeometry width="50" height="50" relative="1" as="geometry">
            <mxPoint x="552.5" y="600" as="sourcePoint" />
            <mxPoint x="602.5" y="550" as="targetPoint" />
          </mxGeometry>
        </mxCell>
        <mxCell id="Rrmjgu_ArYxmoVn-tmQf-85" value="" style="endArrow=none;html=1;rounded=0;entryX=1;entryY=1;entryDx=0;entryDy=0;exitX=0.5;exitY=0;exitDx=0;exitDy=0;" edge="1" parent="1" source="Rrmjgu_ArYxmoVn-tmQf-59" target="Rrmjgu_ArYxmoVn-tmQf-50">
          <mxGeometry width="50" height="50" relative="1" as="geometry">
            <mxPoint x="755" y="590" as="sourcePoint" />
            <mxPoint x="805" y="540" as="targetPoint" />
          </mxGeometry>
        </mxCell>
        <mxCell id="Rrmjgu_ArYxmoVn-tmQf-86" value="" style="endArrow=none;html=1;rounded=0;entryX=0;entryY=1;entryDx=0;entryDy=0;exitX=0.5;exitY=0;exitDx=0;exitDy=0;" edge="1" parent="1" source="Rrmjgu_ArYxmoVn-tmQf-65" target="Rrmjgu_ArYxmoVn-tmQf-58">
          <mxGeometry width="50" height="50" relative="1" as="geometry">
            <mxPoint x="380" y="620" as="sourcePoint" />
            <mxPoint x="430" y="570" as="targetPoint" />
          </mxGeometry>
        </mxCell>
        <mxCell id="Rrmjgu_ArYxmoVn-tmQf-87" value="" style="endArrow=none;html=1;rounded=0;entryX=0.5;entryY=1;entryDx=0;entryDy=0;exitX=0.5;exitY=0;exitDx=0;exitDy=0;" edge="1" parent="1" source="Rrmjgu_ArYxmoVn-tmQf-64" target="Rrmjgu_ArYxmoVn-tmQf-58">
          <mxGeometry width="50" height="50" relative="1" as="geometry">
            <mxPoint x="440" y="630" as="sourcePoint" />
            <mxPoint x="490" y="580" as="targetPoint" />
          </mxGeometry>
        </mxCell>
        <mxCell id="Rrmjgu_ArYxmoVn-tmQf-88" value="" style="endArrow=none;html=1;rounded=0;entryX=1;entryY=1;entryDx=0;entryDy=0;exitX=0.5;exitY=0;exitDx=0;exitDy=0;" edge="1" parent="1" source="Rrmjgu_ArYxmoVn-tmQf-63" target="Rrmjgu_ArYxmoVn-tmQf-58">
          <mxGeometry width="50" height="50" relative="1" as="geometry">
            <mxPoint x="520" y="630" as="sourcePoint" />
            <mxPoint x="570" y="580" as="targetPoint" />
          </mxGeometry>
        </mxCell>
        <mxCell id="Rrmjgu_ArYxmoVn-tmQf-89" value="" style="endArrow=none;html=1;rounded=0;exitX=1;exitY=0.5;exitDx=0;exitDy=0;entryX=0;entryY=0.5;entryDx=0;entryDy=0;" edge="1" parent="1" source="Rrmjgu_ArYxmoVn-tmQf-18" target="Rrmjgu_ArYxmoVn-tmQf-10">
          <mxGeometry width="50" height="50" relative="1" as="geometry">
            <mxPoint x="400" y="400" as="sourcePoint" />
            <mxPoint x="450" y="350" as="targetPoint" />
          </mxGeometry>
        </mxCell>
        <mxCell id="Rrmjgu_ArYxmoVn-tmQf-90" value="Categorized" style="rhombus;whiteSpace=wrap;html=1;" vertex="1" parent="1">
          <mxGeometry x="540" y="410" width="75" height="80" as="geometry" />
        </mxCell>
      </root>
    </mxGraphModel>
  </diagram>
</mxfile>
